# xmcd CD database file
#
# Track frame offsets:
#	150
#	29175
#	78687
#	113327
#	175852
#	218775
#
# Disc length: 3438 seconds
#
# Revision: 0
# Processed by: cddbd v1.5PL3 Copyright (c) Steve Scherf et al.
# Submitted via: CDex 1.51
#
DISCID=4c0d6c06
DTITLE=Gil Evans - Live at the Public Theater Vol. 2 (New York 1980)
DYEAR=1980
DGENRE=Jazz
TTITLE0=Copenhagen Sight
TTITLE1=Zee Zee
TTITLE2=Sirhan's Blues
TTITLE3=Stone Free
TTITLE4=Orange Was The Color Of Har Dress
TTITLE5=Listen To The Silence
EXTD=YEAR: 1980
EXTT0=
EXTT1=
EXTT2=
EXTT3=
EXTT4=
EXTT5=
PLAYORDER=
